<svg xmlns="http://www.w3.org/2000/svg" width="213.809" height="130.911" viewBox="0 0 213.809 130.911">
  <g id="Logo" transform="translate(-630.696 -341.665)">
    <g id="Name" transform="translate(630.696 424.637)">
      <g id="S" transform="translate(0 1.914)">
        <path id="Path_2795" data-name="Path 2795" d="M648.874,614.184l-6.042-2.517q-3.123-1.36-3.122-3.374a2.933,2.933,0,0,1,1.108-2.241,4.632,4.632,0,0,1,3.172-.982,21.453,21.453,0,0,1,9.064,2.468,8.7,8.7,0,0,0,2.619-5.791,24.129,24.129,0,0,0-11.2-2.87,13.732,13.732,0,0,0-9.139,2.92,9.358,9.358,0,0,0-3.475,7.5q0,6.093,7.15,9.215l5.942,2.518q3.374,1.511,3.373,4.029a3.25,3.25,0,0,1-1.132,2.493,4.739,4.739,0,0,1-3.3,1.032q-4.683,0-10.171-3.324a8.438,8.438,0,0,0-2.014,2.543A8.337,8.337,0,0,0,630.7,631a23.359,23.359,0,0,0,6.118,2.77,22.952,22.952,0,0,0,6.522,1.007q6.344,0,9.743-2.971a9.808,9.808,0,0,0,3.4-7.755,9.115,9.115,0,0,0-1.989-5.766A13.951,13.951,0,0,0,648.874,614.184Z" transform="translate(-630.696 -598.876)" fill="#0074ff"/>
      </g>
      <g id="N" transform="translate(28.3 11.532)">
        <path id="Path_2796" data-name="Path 2796" d="M737.848,636.881a10.487,10.487,0,0,0-1.813-6.445,6.2,6.2,0,0,0-5.288-2.417q-3.474,0-7.15,3.122a3.776,3.776,0,0,0-3.978-3.021H716.8l-.352.352v25.077a21.378,21.378,0,0,0,3.8.3,19.723,19.723,0,0,0,3.7-.3V636.68a5.824,5.824,0,0,1,4.129-1.964,1.874,1.874,0,0,1,1.762.856,5.58,5.58,0,0,1,.5,2.719v10.978a5.559,5.559,0,0,0,.932,3.525q.932,1.157,3.374,1.158a6.766,6.766,0,0,0,4.406-1.611,8.751,8.751,0,0,1-1.208-4.985Z" transform="translate(-716.447 -628.019)" fill="#0074ff"/>
      </g>
      <g id="A" transform="translate(52.318 11.381)">
        <path id="Path_2797" data-name="Path 2797" d="M810.425,646.394V636.122q0-4.381-2.543-6.471a9.628,9.628,0,0,0-6.32-2.09,31.945,31.945,0,0,0-5.765.6,27.048,27.048,0,0,0-5.615,1.612,9.13,9.13,0,0,0,1.813,5.237,30.9,30.9,0,0,1,7.5-1.611q3.423,0,3.424,3.323v1.108q-2.114-.151-3.777-.151a11.166,11.166,0,0,0-7.075,2.216,7.733,7.733,0,0,0-2.845,6.5,7.884,7.884,0,0,0,1.989,5.288A7.338,7.338,0,0,0,797.106,654a10.2,10.2,0,0,0,7.125-3.021,6.336,6.336,0,0,0,5.237,2.669,6.742,6.742,0,0,0,1.435-1.712,6.543,6.543,0,0,0,.932-2.166A3.859,3.859,0,0,1,810.425,646.394Zm-7.5.352a6.1,6.1,0,0,1-3.928,1.662,2.325,2.325,0,0,1-1.787-.73,2.526,2.526,0,0,1-.68-1.788q0-3.373,3.374-3.374,1.913,0,3.021.05Z" transform="translate(-789.225 -627.561)" fill="#0074ff"/>
      </g>
      <g id="P" transform="translate(76.59 11.229)">
        <path id="Path_2798" data-name="Path 2798" d="M876.29,627.1a9.493,9.493,0,0,0-6.974,2.871,4.467,4.467,0,0,0-4.179-2.468h-2.015l-.352.352v35.6l.352.353h2.921a4.168,4.168,0,0,0,3.173-1.033,5.108,5.108,0,0,0,.957-3.5v-7a11.466,11.466,0,0,0,4.784,1.158,8.865,8.865,0,0,0,7.15-3.525q2.871-3.524,2.87-9.643t-2.291-9.643A7.225,7.225,0,0,0,876.29,627.1Zm-2.643,20.7a6.872,6.872,0,0,1-3.475-1.259v-11.28a4.847,4.847,0,0,1,3.878-2.115,2.688,2.688,0,0,1,2.366,1.712,11.483,11.483,0,0,1,.907,5.187Q877.323,647.8,873.647,647.8Z" transform="translate(-862.77 -627.103)" fill="#0074ff"/>
      </g>
      <g id="S-2" data-name="S" transform="translate(100.357 1.914)">
        <path id="Path_2799" data-name="Path 2799" d="M952.964,614.184l-6.043-2.517q-3.122-1.36-3.122-3.374a2.934,2.934,0,0,1,1.108-2.241,4.629,4.629,0,0,1,3.172-.982,21.456,21.456,0,0,1,9.064,2.468,8.7,8.7,0,0,0,2.618-5.791,24.125,24.125,0,0,0-11.2-2.87,13.732,13.732,0,0,0-9.14,2.92,9.359,9.359,0,0,0-3.474,7.5q0,6.093,7.15,9.215l5.942,2.518q3.372,1.511,3.374,4.029a3.251,3.251,0,0,1-1.133,2.493,4.737,4.737,0,0,1-3.3,1.032q-4.683,0-10.172-3.324a8.428,8.428,0,0,0-2.014,2.543,8.34,8.34,0,0,0-1.008,3.2,23.363,23.363,0,0,0,6.119,2.77,22.949,22.949,0,0,0,6.521,1.007q6.345,0,9.744-2.971a9.811,9.811,0,0,0,3.4-7.755,9.118,9.118,0,0,0-1.989-5.766A13.955,13.955,0,0,0,952.964,614.184Z" transform="translate(-934.785 -598.876)" fill="#0074ff"/>
      </g>
      <g id="H" transform="translate(129.664)">
        <path id="Path_2800" data-name="Path 2800" d="M1044.837,613.471a10.486,10.486,0,0,0-1.813-6.445,6.147,6.147,0,0,0-5.237-2.417,10.688,10.688,0,0,0-6.848,2.87v-9.87a5.2,5.2,0,0,0-.932-3.5,4.081,4.081,0,0,0-3.147-1.033h-2.921l-.352.353v36.709a21.611,21.611,0,0,0,3.751.3,19.093,19.093,0,0,0,3.6-.3V613.27a5.847,5.847,0,0,1,4.079-1.913,1.944,1.944,0,0,1,1.813.831,5.427,5.427,0,0,1,.5,2.694v10.978a5.675,5.675,0,0,0,.907,3.525q.906,1.157,3.348,1.158a6.765,6.765,0,0,0,4.406-1.611,9.045,9.045,0,0,1-1.158-4.985Z" transform="translate(-1023.587 -593.077)" fill="#0074ff"/>
      </g>
      <g id="O" transform="translate(154.489 11.229)">
        <path id="Path_2801" data-name="Path 2801" d="M1110.34,627.1a10.789,10.789,0,0,0-7.906,2.921q-3.625,3.625-3.626,10.348t3.626,10.348a12.006,12.006,0,0,0,15.812,0q3.626-3.626,3.625-10.348t-3.625-10.348A10.791,10.791,0,0,0,1110.34,627.1Zm3.046,18.959a3.327,3.327,0,0,1-6.093,0,16.1,16.1,0,0,1-.781-5.665,16.328,16.328,0,0,1,.781-5.69,3.311,3.311,0,0,1,6.093,0,16.35,16.35,0,0,1,.781,5.69A16.124,16.124,0,0,1,1113.387,646.062Z" transform="translate(-1098.809 -627.103)" fill="#0074ff"/>
      </g>
      <g id="P-2" data-name="P" transform="translate(180.27 11.229)">
        <path id="Path_2802" data-name="Path 2802" d="M1190.449,627.1a9.494,9.494,0,0,0-6.975,2.871,4.466,4.466,0,0,0-4.179-2.468h-2.014l-.352.352v35.6l.352.353h2.92a4.167,4.167,0,0,0,3.173-1.033,5.11,5.11,0,0,0,.956-3.5v-7a11.471,11.471,0,0,0,4.784,1.158,8.867,8.867,0,0,0,7.151-3.525q2.87-3.524,2.87-9.643t-2.291-9.643A7.224,7.224,0,0,0,1190.449,627.1Zm-2.644,20.7a6.876,6.876,0,0,1-3.474-1.259v-11.28a4.847,4.847,0,0,1,3.877-2.115,2.689,2.689,0,0,1,2.367,1.712,11.481,11.481,0,0,1,.907,5.187Q1191.482,647.8,1187.805,647.8Z" transform="translate(-1176.929 -627.103)" fill="#0074ff"/>
      </g>
      <g id="O-2" data-name="O" transform="translate(201.785 4.409)">
        <path id="Path_2803" data-name="Path 2803" d="M1252.411,608.183a6.154,6.154,0,1,0,1.734,4.288A5.8,5.8,0,0,0,1252.411,608.183Zm-1.36,7.294a4.057,4.057,0,0,1-5.835,0,4.457,4.457,0,0,1,0-6.023,4.032,4.032,0,0,1,5.835,0,4.456,4.456,0,0,1,0,6.023Z" transform="translate(-1242.122 -606.437)" fill="#0074ff"/>
      </g>
      <g id="R" transform="translate(205.521 7.503)">
        <path id="Path_2804" data-name="Path 2804" d="M1257.973,620.254l-.243-.508a1.691,1.691,0,0,0-.73-.818,1.449,1.449,0,0,0,.785-.486,1.554,1.554,0,0,0,.32-1.039,1.431,1.431,0,0,0-.542-1.127,2.56,2.56,0,0,0-1.691-.465l-2.365.067-.066.044v5.46a2.93,2.93,0,0,0,.818.089,3.179,3.179,0,0,0,.839-.089v-1.9h.177a.682.682,0,0,1,.619.4l.464.95a1.113,1.113,0,0,0,1.028.663,1.284,1.284,0,0,0,1.094-.6A1.514,1.514,0,0,1,1257.973,620.254Zm-2.344-2.055-.53.022v-1.149h.6q.64,0,.64.563T1255.629,618.2Z" transform="translate(-1253.441 -615.812)" fill="#0074ff"/>
      </g>
    </g>
    <g id="Isotype" transform="translate(699.839 341.665)">
      <path id="Leaf" d="M920.112,346.3l-.209-4.637H886.5a46.029,46.029,0,0,0-29.029,10.325,12.044,12.044,0,0,0-11.91-10.325h-5.358v8.841h5.358a3.182,3.182,0,0,1,3.064,4.039l-4.46,15.176a45.906,45.906,0,0,0-3.02,10.387l-.8,4.775a7.888,7.888,0,0,0,7.784,9.158h26.034a45.557,45.557,0,0,0,33.132-14.1A46.145,46.145,0,0,0,920.112,346.3Zm-19.19,27.513A36.793,36.793,0,0,1,874.164,385.2H849.258l.021-.126,45.491-25.394L852,374.435l.489-1.664A37.1,37.1,0,0,1,886.5,350.506h24.724A37.339,37.339,0,0,1,900.922,373.815Z" transform="translate(-840.206 -341.665)" fill="#fbbb21"/>
      <path id="Wheel_Left" data-name="Wheel Left" d="M861.208,507.914a7.5,7.5,0,1,0,7.5,7.5A7.5,7.5,0,0,0,861.208,507.914Z" transform="translate(-849.254 -453.048)" fill="#fbbb21"/>
      <path id="Wheel_Right" data-name="Wheel Right" d="M967.607,507.914a7.5,7.5,0,1,0,7.5,7.5A7.5,7.5,0,0,0,967.607,507.914Z" transform="translate(-920.539 -453.048)" fill="#fbbb21"/>
    </g>
  </g>
</svg>
