<svg id="sun" xmlns="http://www.w3.org/2000/svg" width="26.018" height="26.018" viewBox="0 0 26.018 26.018">
  <g id="Group_1" data-name="Group 1">
    <circle id="Ellipse_275" data-name="Ellipse 275" cx="7.359" cy="7.359" r="7.359" transform="translate(5.649 5.649)" fill="#ffd347"/>
    <path id="Path_2810" data-name="Path 2810" d="M248.656,2.889a.393.393,0,0,1-.393-.393V.393a.393.393,0,1,1,.786,0V2.5A.393.393,0,0,1,248.656,2.889Z" transform="translate(-235.647)" fill="#ffd347"/>
    <path id="Path_2811" data-name="Path 2811" d="M125.576,35.868a.393.393,0,0,1-.341-.2l-1.051-1.821a.393.393,0,0,1,.681-.393l1.051,1.821a.393.393,0,0,1-.34.59Z" transform="translate(-117.824 -31.571)" fill="#ffd347"/>
    <path id="Path_2812" data-name="Path 2812" d="M35.474,125.968a.391.391,0,0,1-.2-.053l-1.821-1.051a.393.393,0,0,1,.393-.681l1.821,1.051a.393.393,0,0,1-.2.734Z" transform="translate(-31.57 -117.823)" fill="#ffd347"/>
    <path id="Path_2813" data-name="Path 2813" d="M2.5,249.049H.393a.393.393,0,1,1,0-.786H2.5a.393.393,0,1,1,0,.786Z" transform="translate(0 -235.647)" fill="#ffd347"/>
    <path id="Path_2814" data-name="Path 2814" d="M33.654,353.545a.393.393,0,0,1-.2-.734l1.821-1.051a.393.393,0,0,1,.393.681l-1.821,1.051A.392.392,0,0,1,33.654,353.545Z" transform="translate(-31.57 -333.835)" fill="#ffd347"/>
    <path id="Path_2815" data-name="Path 2815" d="M124.524,430.039a.393.393,0,0,1-.34-.59l1.051-1.821a.393.393,0,1,1,.681.393l-1.051,1.821A.393.393,0,0,1,124.524,430.039Z" transform="translate(-117.824 -405.712)" fill="#ffd347"/>
    <path id="Path_2816" data-name="Path 2816" d="M248.656,458.039a.393.393,0,0,1-.393-.393v-2.1a.393.393,0,1,1,.786,0v2.1A.393.393,0,0,1,248.656,458.039Z" transform="translate(-235.647 -432.021)" fill="#ffd347"/>
    <path id="Path_2817" data-name="Path 2817" d="M353.151,430.04a.393.393,0,0,1-.341-.2l-1.051-1.821a.393.393,0,0,1,.681-.393l1.051,1.821a.393.393,0,0,1-.34.59Z" transform="translate(-333.834 -405.713)" fill="#ffd347"/>
    <path id="Path_2818" data-name="Path 2818" d="M429.646,353.543a.391.391,0,0,1-.2-.053l-1.821-1.051a.393.393,0,1,1,.393-.681l1.821,1.051a.393.393,0,0,1-.2.734Z" transform="translate(-405.712 -333.834)" fill="#ffd347"/>
    <path id="Path_2819" data-name="Path 2819" d="M457.646,249.049h-2.1a.393.393,0,1,1,0-.786h2.1a.393.393,0,1,1,0,.786Z" transform="translate(-432.021 -235.647)" fill="#ffd347"/>
    <path id="Path_2820" data-name="Path 2820" d="M427.826,125.97a.393.393,0,0,1-.2-.734l1.821-1.051a.393.393,0,0,1,.393.681l-1.821,1.051A.392.392,0,0,1,427.826,125.97Z" transform="translate(-405.712 -117.824)" fill="#ffd347"/>
    <path id="Path_2821" data-name="Path 2821" d="M352.1,35.867a.393.393,0,0,1-.34-.59l1.051-1.821a.393.393,0,1,1,.681.393L352.44,35.67A.393.393,0,0,1,352.1,35.867Z" transform="translate(-333.834 -31.57)" fill="#ffd347"/>
  </g>
  <path id="Path_2822" data-name="Path 2822" d="M241.272,111.18a7.455,7.455,0,0,0-.788.042,7.359,7.359,0,0,1,0,14.634,7.359,7.359,0,1,0,.788-14.676Z" transform="translate(-228.264 -105.53)" fill="#ffbe31"/>
</svg>
